<?xml version="1.0" encoding="utf-8"?>
<!-- Generator: Adobe Illustrator 18.0.0, SVG Export Plug-In . SVG Version: 6.00 Build 0)  -->
<!DOCTYPE svg PUBLIC "-//W3C//DTD SVG 1.1//EN" "http://www.w3.org/Graphics/SVG/1.1/DTD/svg11.dtd">
<svg version="1.1" id="Layer_1" xmlns="http://www.w3.org/2000/svg" xmlns:xlink="http://www.w3.org/1999/xlink" x="0px" y="0px"
	 viewBox="0 0 32 32" enable-background="new 0 0 32 32" xml:space="preserve">
<path fill="#FFFFFF" d="M16,0C7.2,0,0,7.2,0,16c0,8.8,7.2,16,16,16c8.8,0,16-7.2,16-16C32,7.2,24.8,0,16,0z M20.4,22.9
	c-1.4,0-2.8-0.4-3.9-1.2c0.6-0.5,1.1-1.1,1.5-1.8c0.7,0.4,1.5,0.7,2.4,0.7c2.5,0,4.6-2.1,4.6-4.6c0-2.5-2.1-4.6-4.6-4.6
	c-1.2,0-2.3,0.5-3.1,1.2v1c0,0,0,0,0,0v6.2c0,0,0,0,0,0v0h0c-1.2,1.8-3.3,3-5.7,3c-3.8,0-6.9-3.1-6.9-6.9c0-3.8,3.1-6.9,6.9-6.9
	c1.4,0,2.8,0.4,3.9,1.2c-0.6,0.5-1.1,1.1-1.5,1.8c-0.7-0.4-1.5-0.7-2.4-0.7C9,11.4,7,13.5,7,16c0,2.5,2.1,4.6,4.6,4.6
	c1.4,0,2.6-0.6,3.4-1.5v-1.2v-6.1v0c1.3-1.6,3.2-2.6,5.4-2.6c3.8,0,6.9,3.1,6.9,6.9C27.3,19.8,24.2,22.9,20.4,22.9z"/>
</svg>
