<?xml version="1.0" encoding="utf-8"?>
<!-- Generator: Adobe Illustrator 18.0.0, SVG Export Plug-In . SVG Version: 6.00 Build 0)  -->
<!DOCTYPE svg PUBLIC "-//W3C//DTD SVG 1.1//EN" "http://www.w3.org/Graphics/SVG/1.1/DTD/svg11.dtd">
<svg version="1.1" id="Layer_1" xmlns="http://www.w3.org/2000/svg" xmlns:xlink="http://www.w3.org/1999/xlink" x="0px" y="0px"
	 viewBox="0 0 115.8 52.5" enable-background="new 0 0 115.8 52.5" xml:space="preserve">
<g>
	<path fill="#FFFFFF" d="M31.2,18.6c0-0.9,0.1-1.7,0.1-2.4h-1.8h-5h-1.8c0,0.5,0,0.9,0.1,1.4c-1.3-1.2-3.1-2-5.6-2
		c-6.2,0-11.5,5.2-11.5,13.4c0,7.3,4.5,12.4,10.8,12.4c2.7,0,5-1.1,6.6-2.9v3.1h0.2c-0.7,3.4-3.2,4.8-6.4,4.8c-3,0-5.8-1-7.4-1.9
		l-1.6,6c2.3,1.3,5.8,2,9.2,2c3.7,0,7.5-0.7,10.4-3.1c2.9-2.5,3.8-6.6,3.8-11.4V26.4c0.7-2.1,2.6-3.5,5.3-3.5c0.9,0,1.6,0.1,2.1,0.2
		v-7.4c-0.6-0.1-0.9-0.1-1.7-0.1C35,15.6,32.7,16.5,31.2,18.6z M18.8,35.6c-3.3,0-5.2-3-5.2-6.8c0-4.6,2.3-7.2,5.2-7.2
		c2,0,3.5,1.2,4.1,3v7.9C22.3,34.3,20.8,35.6,18.8,35.6z"/>
	<path fill="#FFFFFF" d="M63.4,16.2h-8v15.1c0,0.6-0.1,1.2-0.3,1.7c-0.5,1.2-1.8,2.8-4,2.8c-2.8,0-4-2.2-4-5.9V16.2h-8v14.9
		c0,7.9,3.8,11.1,8.9,11.1c4.6,0,7-2.6,8-4.2h0.2l0.4,3.6h6.9c-0.1-2.1-0.2-4.8-0.2-8.2V16.2z"/>
	<path fill="#FFFFFF" d="M80.2,15.6c-3.5,0-6.2,1.4-7.7,3.6h-0.1V0h-7.9v34c0,2.9-0.1,5.9-0.2,7.6H71l0.3-3.5h0.1
		c1.8,3,4.7,4.1,7.6,4.1c5.8,0,11.7-4.6,11.7-13.7C90.8,20.7,86.3,15.6,80.2,15.6z M77.2,35.9c-2.3,0-4.1-1.6-4.6-3.7
		c-0.1-0.4-0.2-0.9-0.2-1.4v-3.7c0-0.5,0.1-1,0.2-1.5c0.5-2.3,2.5-3.9,4.6-3.9c3.7,0,5.5,3.1,5.5,7.1C82.7,33.3,80.6,35.9,77.2,35.9
		z"/>
	<path fill="#FFFFFF" d="M102.3,26.1c-3.1-1.1-4.1-1.7-4.1-2.9c0-1.3,1.1-2.1,3-2.1c2.2,0,4.4,0.8,5.5,1.5l1.4-5.5
		c-1.6-0.8-4.2-1.5-7.2-1.5c-6.3,0-10.4,3.6-10.4,8.3c-0.1,3,2,5.9,7.2,7.6c3,1,3.7,1.6,3.7,2.9c0,1.3-1,2.1-3.4,2.1
		c-2.3,0-5.4-1-6.8-1.9L90,40.4c1.9,1,4.9,1.8,8.2,1.8c7.3,0,11-3.5,11-8.2C109.2,30.2,107.2,27.7,102.3,26.1z"/>
	<polygon fill="#FFFFFF" points="8.2,45.6 8.2,43.7 6.4,43.7 7.6,42.4 6.3,41.1 5,42.4 5,40.5 3.2,40.5 3.2,42.4 1.9,41.1 0.6,42.4 
		1.9,43.7 0,43.7 0,45.6 1.9,45.6 0.6,46.9 1.9,48.2 3.2,46.9 3.2,48.7 5,48.7 5,46.9 6.3,48.2 7.6,46.8 6.4,45.6 	"/>
	<polygon fill="#FFFFFF" points="115.8,21.4 114,21.4 115.2,20.1 113.9,18.8 112.6,20.1 112.6,18.2 110.8,18.2 110.8,20.1 
		109.5,18.7 108.2,20 109.5,21.4 107.6,21.4 107.6,23.2 109.5,23.2 108.2,24.6 109.5,25.9 110.8,24.5 110.8,26.4 112.6,26.4 
		112.6,24.5 113.9,25.8 115.2,24.5 114,23.2 115.8,23.2 	"/>
</g>
</svg>
